<svg width="18" height="16" viewBox="0 0 18 16" fill="none" xmlns="http://www.w3.org/2000/svg">
<g clip-path="url(#clip0_81:471)">
<path fill-rule="evenodd" clip-rule="evenodd" d="M17.375 2.12499H16.047C15.43 1.46099 14.247 0.999992 13.458 0.999992V0.0419922H12.5V0.999992H4.54199C3.43799 0.999992 2.54199 0.999992 2.54199 1.99999V3.87499C2.54199 4.97899 3.43299 5.87499 4.53099 5.87499V6.99999H3.49999V7.99999H5.49999V9.99999H6.45799V5.87499H6.51099C7.01099 5.87499 7.23699 5.45999 7.34799 4.91799L7.48699 4.04999C7.50599 3.67599 7.46799 4.30499 7.48699 3.99999H11.5V11.042H3.54199C3.01156 11.042 2.50285 11.2527 2.12778 11.6278C1.75271 12.0029 1.54199 12.5116 1.54199 13.042V13.958C1.54199 15.062 2.43799 14.958 3.54199 14.958H14.458C15.562 14.958 16.458 15.062 16.458 13.958V5.87499H17.375V2.12499Z" fill="#3E065F"/>
</g>
<defs>
<clipPath id="clip0_81:471">
<rect width="17" height="16" fill="white" transform="translate(0.5)"/>
</clipPath>
</defs>
</svg>
