<svg width="24" height="24" viewBox="0 0 24 24" fill="none" xmlns="http://www.w3.org/2000/svg">
<path d="M4.28573 1.78351e-06C4.12669 7.53093e-06 3.97079 0.0476679 3.83547 0.137651C3.70015 0.227634 3.59075 0.35639 3.5195 0.509515L0.0911704 7.89377C0.0170275 8.05276 -0.0128718 8.23143 0.00507094 8.40829C0.0230137 8.58515 0.0880339 8.75265 0.192306 8.89065L11.3344 23.6592C11.4147 23.7656 11.5161 23.8515 11.6312 23.9104C11.7462 23.9694 11.8721 24 11.9995 24C12.1269 24 12.2527 23.9694 12.3677 23.9104C12.4828 23.8515 12.5842 23.7656 12.6646 23.6592L23.8066 8.89065C23.9112 8.75284 23.9765 8.58543 23.9948 8.40856C24.013 8.2317 23.9834 8.05293 23.9095 7.89377L20.4812 0.509515C20.4098 0.356109 20.3001 0.227167 20.1645 0.137165C20.0288 0.0471633 19.8725 -0.00033547 19.7132 1.78351e-06H4.28573ZM2.24416 7.38426L4.81541 1.84607H8.32944L7.04382 7.38426H2.24416ZM2.65727 9.23032H7.08496L9.84991 18.7634L2.65727 9.23032ZM8.87969 9.23032H15.1192L11.9995 19.9799L8.87969 9.23032ZM16.9157 9.23032H21.3417L14.149 18.7634L16.9157 9.23032ZM21.7548 7.38426H16.9551L15.6695 1.84607H19.1835L21.7548 7.38426ZM15.1878 7.38426H8.81112L10.0967 1.84607H13.9022L15.1878 7.38426Z" fill="#3E065F"/>
</svg>
